HIERARCHY
ROOT joint_0
{
	OFFSET 0.000000 0.000000 0.000000
	CHANNELS 6 Xposition Yposition Zposition Zrotation Yrotation Xrotation 
	JOINT joint_1
	{
		OFFSET 14.113007 -2.961990 123.953979
		CHANNELS 3 Zrotation Yrotation Xrotation
		JOINT joint_2
		{
			OFFSET 0.764000 -2.434006 113.871948
			CHANNELS 3 Zrotation Yrotation Xrotation
			JOINT joint_3
			{
				OFFSET 0.186996 -2.169998 113.753052
				CHANNELS 3 Zrotation Yrotation Xrotation
				JOINT joint_4
				{
					OFFSET 16.096001 -2.720001 160.853027
					CHANNELS 3 Zrotation Yrotation Xrotation
					JOINT joint_5
					{
						OFFSET 34.392006 -0.188995 92.567017
						CHANNELS 3 Zrotation Yrotation Xrotation
						End Site
						{
							OFFSET 0.000000 0.000000 0.000000
						}
					}
				}
				JOINT joint_6
				{
					OFFSET 9.183998 -36.684006 89.597046
					CHANNELS 3 Zrotation Yrotation Xrotation
					JOINT joint_7
					{
						OFFSET 0.486000 -164.365997 -28.984009
						CHANNELS 3 Zrotation Yrotation Xrotation
						JOINT joint_8
						{
							OFFSET 38.899002 -34.967010 -291.651978
							CHANNELS 3 Zrotation Yrotation Xrotation
							JOINT joint_9
							{
								OFFSET 41.714005 -45.890991 -258.857056
								CHANNELS 3 Zrotation Yrotation Xrotation
								End Site
								{
									OFFSET 0.000000 0.000000 0.000000
								}
							}
						}
					}
				}
				JOINT joint_10
				{
					OFFSET 8.867004 33.650002 90.817993
					CHANNELS 3 Zrotation Yrotation Xrotation
					JOINT joint_11
					{
						OFFSET 0.018997 164.299999 -29.368042
						CHANNELS 3 Zrotation Yrotation Xrotation
						JOINT joint_12
						{
							OFFSET 29.440994 30.887997 -293.216919
							CHANNELS 3 Zrotation Yrotation Xrotation
							JOINT joint_13
							{
								OFFSET 46.174011 54.490005 -256.422058
								CHANNELS 3 Zrotation Yrotation Xrotation
								End Site
								{
									OFFSET 0.000000 0.000000 0.000000
								}
							}
						}
					}
				}
			}
		}
	}
	JOINT joint_14
	{
		OFFSET -2.264000 -89.466995 -116.150024
		CHANNELS 3 Zrotation Yrotation Xrotation
		JOINT joint_15
		{
			OFFSET -16.400993 -17.452988 -493.781982
			CHANNELS 3 Zrotation Yrotation Xrotation
			JOINT joint_16
			{
				OFFSET -50.497004 -13.404022 -424.754013
				CHANNELS 3 Zrotation Yrotation Xrotation
				JOINT joint_17
				{
					OFFSET 198.546007 -19.341003 -89.309000
					CHANNELS 3 Zrotation Yrotation Xrotation
					End Site
					{
						OFFSET 0.000000 0.000000 0.000000
					}
				}
			}
		}
	}
	JOINT joint_18
	{
		OFFSET -0.867996 96.016006 -110.817993
		CHANNELS 3 Zrotation Yrotation Xrotation
		JOINT joint_19
		{
			OFFSET -10.130997 24.658998 -493.645020
			CHANNELS 3 Zrotation Yrotation Xrotation
			JOINT joint_20
			{
				OFFSET -48.871004 19.434999 -424.714005
				CHANNELS 3 Zrotation Yrotation Xrotation
				JOINT joint_21
				{
					OFFSET 195.579996 24.926001 -94.327003
					CHANNELS 3 Zrotation Yrotation Xrotation
					End Site
					{
						OFFSET 0.000000 0.000000 0.000000
					}
				}
			}
		}
	}
}
MOTION
Frames: 9
Frame Time: 0.016667
63.875000 -133.935000 1142.842040 3.107231 -4.433704 -1.149538 -0.690347 -0.678216 1.584133 -0.667851 0.082343 -0.408146 -0.671118 -0.052600 0.226505 -0.329585 0.236809 0.879125 0.000000 0.000000 0.000000 0.880751 1.542293 0.972487 -0.247645 1.735523 -0.174447 -0.059327 -0.177039 -0.562280 0.000000 0.000000 0.000000 -0.466631 0.862859 0.435306 0.016082 0.948515 -0.183920 -0.156435 -0.229414 -0.596494 0.000000 0.000000 0.000000 1.191454 1.077481 1.191525 1.170200 2.414338 0.364119 1.287682 -1.267343 0.453417 0.000000 0.000000 0.000000 -3.918300 1.695719 -2.239712 -4.021661 0.201508 -0.437639 -3.906000 -0.421377 -1.809059 0.000000 0.000000 0.000000 
63.978000 -134.050990 1142.659060 3.130199 -4.228061 -1.158520 -0.662200 -0.710323 1.632184 -0.638244 0.075998 -0.423299 -0.641518 -0.055348 0.243131 -0.319305 0.233409 0.852277 0.000000 0.000000 0.000000 0.078566 1.439165 0.630601 -0.179430 1.481545 0.160345 -0.084821 -0.009623 -0.536522 0.000000 0.000000 0.000000 0.081645 0.709168 -0.022141 0.036983 0.700446 0.157080 -0.126796 -0.128702 -0.550737 0.000000 0.000000 0.000000 1.176833 0.820897 1.195100 1.142657 2.491575 0.393489 1.269888 -1.318859 0.440447 0.000000 0.000000 0.000000 -3.911606 1.439408 -2.191381 -3.997106 0.278006 -0.469365 -3.894089 -0.498829 -1.793633 0.000000 0.000000 0.000000 
64.286000 -134.153000 1142.498050 3.162448 -3.906142 -1.169946 -0.616949 -0.730399 1.700174 -0.591339 0.065352 -0.445763 -0.594607 -0.060083 0.267796 -0.310400 0.163893 0.828834 0.000000 0.000000 0.000000 -0.995705 1.332057 0.116337 -0.079374 1.170950 0.656924 -0.098109 0.132440 -0.463183 0.000000 0.000000 0.000000 0.828831 0.520899 -0.603913 0.054132 0.380797 0.586047 -0.106216 -0.057771 -0.520178 0.000000 0.000000 0.000000 1.158126 0.445976 1.193582 1.106204 2.574444 0.437153 1.246084 -1.385008 0.423379 0.000000 0.000000 0.000000 -3.905030 1.063041 -2.124795 -3.965969 0.361757 -0.515669 -3.879105 -0.596652 -1.774181 0.000000 0.000000 0.000000 
65.630000 -134.427000 1142.682980 3.200329 -3.388648 -1.170398 -0.539350 -0.621974 1.768189 -0.514292 0.043904 -0.464170 -0.516812 -0.036720 0.292064 -0.332018 -0.389773 0.884299 0.000000 0.000000 0.000000 -1.565204 1.535020 -0.508852 0.020828 1.259278 1.161660 0.060508 -0.437809 -0.105968 0.000000 0.000000 0.000000 1.313007 0.538149 -0.776089 -0.004842 0.300219 0.734781 -0.238572 -0.472057 -0.762430 0.000000 0.000000 0.000000 1.142803 -0.012470 1.184782 1.076197 2.501551 0.477571 1.219995 -1.401424 0.410219 0.000000 0.000000 0.000000 -3.928211 0.608852 -2.050235 -3.970228 0.273101 -0.546854 -3.883642 -0.614746 -1.774420 0.000000 0.000000 0.000000 
68.232000 -135.017000 1143.540040 3.237499 -2.579811 -1.147687 -0.380540 -0.184991 1.844894 -0.362170 -0.007353 -0.461778 -0.362460 0.031626 0.307912 -0.421726 -1.878697 1.111787 0.000000 0.000000 0.000000 -1.298376 2.314116 -1.315608 0.141148 2.069012 1.725528 0.557155 -2.570793 0.642762 0.000000 0.000000 0.000000 1.303186 0.897995 -0.284358 -0.214436 0.624899 0.454868 -0.675416 -1.909475 -1.462350 0.000000 0.000000 0.000000 1.135099 -0.639377 1.151331 1.053672 2.249038 0.529005 1.192382 -1.340817 0.403953 0.000000 0.000000 0.000000 -4.003115 0.013756 -1.971071 -4.032868 -0.055940 -0.547777 -3.921465 -0.492388 -1.808618 0.000000 0.000000 0.000000 
71.872000 -135.778000 1144.741940 3.279870 -1.601271 -1.111462 -0.188394 0.434754 1.915987 -0.179771 -0.069587 -0.429002 -0.177872 0.080322 0.301726 -0.536148 -3.888985 1.382918 0.000000 0.000000 0.000000 -0.568331 3.421934 -2.083653 0.241131 3.297382 2.239167 1.194659 -5.515952 1.509980 0.000000 0.000000 0.000000 1.088743 1.470331 0.516552 -0.502702 1.187483 0.033975 -1.275171 -3.848307 -2.429229 0.000000 0.000000 0.000000 1.130871 -1.317550 1.108796 1.038541 1.832271 0.575972 1.163040 -1.217846 0.403010 0.000000 0.000000 0.000000 -4.106064 -0.626339 -1.886218 -4.131064 -0.566708 -0.529952 -3.978017 -0.274568 -1.863906 0.000000 0.000000 0.000000 
76.717000 -136.468990 1145.629030 3.341328 -0.677189 -1.080585 -0.093541 0.789290 1.926409 -0.089764 -0.093559 -0.387981 -0.087647 0.060832 0.277274 -0.590345 -5.508589 1.479838 0.000000 0.000000 0.000000 0.396973 4.398956 -2.434957 0.224390 4.458569 2.343805 1.636023 -7.503815 2.365423 0.000000 0.000000 0.000000 0.936557 2.084727 1.318212 -0.718523 1.799423 -0.326936 -1.734040 -5.137252 -3.381017 0.000000 0.000000 0.000000 1.126373 -1.736299 1.105573 1.044452 1.152414 0.552914 1.134506 -1.028241 0.408937 0.000000 0.000000 0.000000 -4.199278 -1.058626 -1.798319 -4.237735 -1.243333 -0.505293 -4.033786 -0.020499 -1.923398 0.000000 0.000000 0.000000 
83.475000 -137.035000 1145.840940 3.435961 0.157186 -1.068214 -0.187468 0.578877 1.837642 -0.180046 -0.068191 -0.372053 -0.179483 0.004507 0.251545 -0.537120 -6.535126 1.299810 0.000000 0.000000 0.000000 1.907664 5.194646 -2.194203 0.042538 5.552958 1.658220 1.870900 -7.893119 3.672762 0.000000 0.000000 0.000000 0.955915 2.781801 2.226678 -0.821448 2.487737 -0.706834 -1.973247 -5.334757 -4.446552 0.000000 0.000000 0.000000 1.123997 -1.626714 1.190771 1.100008 -0.165593 0.381435 1.113447 -0.719775 0.429784 0.000000 0.000000 0.000000 -4.278947 -1.051371 -1.691177 -4.374972 -2.387467 -0.455493 -4.095495 0.305291 -1.994647 0.000000 0.000000 0.000000 
91.438000 -137.530000 1145.737060 3.551693 0.953987 -1.057899 -0.379501 0.072371 1.688478 -0.365201 -0.021687 -0.363814 -0.366807 -0.057789 0.224903 -0.427990 -7.182288 0.983175 0.000000 0.000000 0.000000 3.763079 5.871350 -1.570618 -0.223320 6.595346 0.542490 1.981785 -7.373193 5.177098 0.000000 0.000000 0.000000 1.001248 3.516122 3.147061 -0.858577 3.224858 -1.070233 -2.078499 -4.898564 -5.550948 0.000000 0.000000 0.000000 1.120624 -1.275678 1.316166 1.176792 -1.753385 0.128663 1.097938 -0.286198 0.465109 0.000000 0.000000 0.000000 -4.349006 -0.856012 -1.582427 -4.519576 -3.700927 -0.397183 -4.157549 0.707681 -2.075125 0.000000 0.000000 0.000000 
